<svg width="274" height="85" viewBox="0 0 274 85" fill="none" xmlns="http://www.w3.org/2000/svg">
<rect width="274" height="85" rx="7" fill="url(#paint0_linear_1_176)"/>
<rect width="274" height="85" rx="7" fill="url(#paint1_linear_1_176)"/>
<path d="M65.68 53.196C64.3173 53.196 63.0853 52.9627 61.984 52.496C60.9013 52.0293 60.0427 51.3573 59.408 50.48C58.7733 49.6027 58.4467 48.5667 58.428 47.372H62.628C62.684 48.1747 62.964 48.8093 63.468 49.276C63.9907 49.7427 64.7 49.976 65.596 49.976C66.5107 49.976 67.2293 49.7613 67.752 49.332C68.2747 48.884 68.536 48.3053 68.536 47.596C68.536 47.0173 68.3587 46.5413 68.004 46.168C67.6493 45.7947 67.2013 45.5053 66.66 45.3C66.1373 45.076 65.4093 44.8333 64.476 44.572C63.2067 44.1987 62.1707 43.8347 61.368 43.48C60.584 43.1067 59.9027 42.556 59.324 41.828C58.764 41.0813 58.484 40.092 58.484 38.86C58.484 37.7027 58.7733 36.6947 59.352 35.836C59.9307 34.9773 60.7427 34.324 61.788 33.876C62.8333 33.4093 64.028 33.176 65.372 33.176C67.388 33.176 69.0213 33.6707 70.272 34.66C71.5413 35.6307 72.2413 36.9933 72.372 38.748H68.06C68.0227 38.076 67.7333 37.5253 67.192 37.096C66.6693 36.648 65.9693 36.424 65.092 36.424C64.3267 36.424 63.7107 36.62 63.244 37.012C62.796 37.404 62.572 37.9733 62.572 38.72C62.572 39.2427 62.74 39.6813 63.076 40.036C63.4307 40.372 63.86 40.652 64.364 40.876C64.8867 41.0813 65.6147 41.324 66.548 41.604C67.8173 41.9773 68.8533 42.3507 69.656 42.724C70.4587 43.0973 71.1493 43.6573 71.728 44.404C72.3067 45.1507 72.596 46.1307 72.596 47.344C72.596 48.3893 72.3253 49.36 71.784 50.256C71.2427 51.152 70.4493 51.8707 69.404 52.412C68.3587 52.9347 67.1173 53.196 65.68 53.196ZM90.4145 44.908C90.4145 45.468 90.3772 45.972 90.3025 46.42H78.9625C79.0558 47.54 79.4478 48.4173 80.1385 49.052C80.8292 49.6867 81.6785 50.004 82.6865 50.004C84.1425 50.004 85.1785 49.3787 85.7945 48.128H90.0225C89.5745 49.6213 88.7158 50.8533 87.4465 51.824C86.1772 52.776 84.6185 53.252 82.7705 53.252C81.2772 53.252 79.9332 52.9253 78.7385 52.272C77.5625 51.6 76.6385 50.6573 75.9665 49.444C75.3132 48.2307 74.9865 46.8307 74.9865 45.244C74.9865 43.6387 75.3132 42.2293 75.9665 41.016C76.6198 39.8027 77.5345 38.8693 78.7105 38.216C79.8865 37.5627 81.2398 37.236 82.7705 37.236C84.2452 37.236 85.5612 37.5533 86.7185 38.188C87.8945 38.8227 88.7998 39.728 89.4345 40.904C90.0878 42.0613 90.4145 43.396 90.4145 44.908ZM86.3545 43.788C86.3358 42.78 85.9718 41.9773 85.2625 41.38C84.5532 40.764 83.6852 40.456 82.6585 40.456C81.6878 40.456 80.8665 40.7547 80.1945 41.352C79.5412 41.9307 79.1398 42.7427 78.9905 43.788H86.3545ZM97.1958 39.896C97.6998 39.0747 98.3531 38.4307 99.1558 37.964C99.9771 37.4973 100.91 37.264 101.956 37.264V41.38H100.92C99.6878 41.38 98.7544 41.6693 98.1198 42.248C97.5038 42.8267 97.1958 43.8347 97.1958 45.272V53H93.2758V37.488H97.1958V39.896ZM111.064 49.388L114.984 37.488H119.156L113.416 53H108.656L102.944 37.488H107.144L111.064 49.388ZM123.346 35.64C122.655 35.64 122.076 35.4253 121.61 34.996C121.162 34.548 120.938 33.9973 120.938 33.344C120.938 32.6907 121.162 32.1493 121.61 31.72C122.076 31.272 122.655 31.048 123.346 31.048C124.036 31.048 124.606 31.272 125.054 31.72C125.52 32.1493 125.754 32.6907 125.754 33.344C125.754 33.9973 125.52 34.548 125.054 34.996C124.606 35.4253 124.036 35.64 123.346 35.64ZM125.278 37.488V53H121.358V37.488H125.278ZM128.143 45.244C128.143 43.6387 128.469 42.2387 129.123 41.044C129.776 39.8307 130.681 38.8973 131.839 38.244C132.996 37.572 134.321 37.236 135.815 37.236C137.737 37.236 139.324 37.7213 140.575 38.692C141.844 39.644 142.693 40.988 143.123 42.724H138.895C138.671 42.052 138.288 41.5293 137.747 41.156C137.224 40.764 136.571 40.568 135.787 40.568C134.667 40.568 133.78 40.9787 133.127 41.8C132.473 42.6027 132.147 43.7507 132.147 45.244C132.147 46.7187 132.473 47.8667 133.127 48.688C133.78 49.4907 134.667 49.892 135.787 49.892C137.373 49.892 138.409 49.1827 138.895 47.764H143.123C142.693 49.444 141.844 50.7787 140.575 51.768C139.305 52.7573 137.719 53.252 135.815 53.252C134.321 53.252 132.996 52.9253 131.839 52.272C130.681 51.6 129.776 50.6667 129.123 49.472C128.469 48.2587 128.143 46.8493 128.143 45.244ZM160.415 44.908C160.415 45.468 160.377 45.972 160.303 46.42H148.963C149.056 47.54 149.448 48.4173 150.139 49.052C150.829 49.6867 151.679 50.004 152.687 50.004C154.143 50.004 155.179 49.3787 155.795 48.128H160.023C159.575 49.6213 158.716 50.8533 157.447 51.824C156.177 52.776 154.619 53.252 152.771 53.252C151.277 53.252 149.933 52.9253 148.739 52.272C147.563 51.6 146.639 50.6573 145.967 49.444C145.313 48.2307 144.986 46.8307 144.986 45.244C144.986 43.6387 145.313 42.2293 145.967 41.016C146.62 39.8027 147.535 38.8693 148.711 38.216C149.887 37.5627 151.24 37.236 152.771 37.236C154.245 37.236 155.561 37.5533 156.719 38.188C157.895 38.8227 158.8 39.728 159.435 40.904C160.088 42.0613 160.415 43.396 160.415 44.908ZM156.355 43.788C156.336 42.78 155.972 41.9773 155.263 41.38C154.553 40.764 153.685 40.456 152.659 40.456C151.688 40.456 150.867 40.7547 150.195 41.352C149.541 41.9307 149.14 42.7427 148.991 43.788H156.355ZM169.212 53.252C167.942 53.252 166.804 53.028 165.796 52.58C164.788 52.1133 163.985 51.488 163.388 50.704C162.809 49.92 162.492 49.052 162.436 48.1H166.384C166.458 48.6973 166.748 49.192 167.252 49.584C167.774 49.976 168.418 50.172 169.184 50.172C169.93 50.172 170.509 50.0227 170.92 49.724C171.349 49.4253 171.564 49.0427 171.564 48.576C171.564 48.072 171.302 47.6987 170.78 47.456C170.276 47.1947 169.464 46.9147 168.344 46.616C167.186 46.336 166.234 46.0467 165.488 45.748C164.76 45.4493 164.125 44.992 163.584 44.376C163.061 43.76 162.8 42.9293 162.8 41.884C162.8 41.0253 163.042 40.2413 163.528 39.532C164.032 38.8227 164.741 38.2627 165.656 37.852C166.589 37.4413 167.681 37.236 168.932 37.236C170.78 37.236 172.254 37.7027 173.356 38.636C174.457 39.5507 175.064 40.792 175.176 42.36H171.424C171.368 41.744 171.106 41.2587 170.64 40.904C170.192 40.5307 169.585 40.344 168.82 40.344C168.11 40.344 167.56 40.4747 167.168 40.736C166.794 40.9973 166.608 41.3613 166.608 41.828C166.608 42.3507 166.869 42.752 167.392 43.032C167.914 43.2933 168.726 43.564 169.828 43.844C170.948 44.124 171.872 44.4133 172.6 44.712C173.328 45.0107 173.953 45.4773 174.476 46.112C175.017 46.728 175.297 47.5493 175.316 48.576C175.316 49.472 175.064 50.2747 174.56 50.984C174.074 51.6933 173.365 52.2533 172.432 52.664C171.517 53.056 170.444 53.252 169.212 53.252Z" fill="black"/>
<path d="M194.201 34.4996L202.701 42.9996L194.201 51.4996L195.901 54.8996L207.801 42.9996L195.901 31.0996L194.201 34.4996Z" fill="black"/>
<defs>
<linearGradient id="paint0_linear_1_176" x1="0" y1="0" x2="269" y2="78" gradientUnits="userSpaceOnUse">
<stop stop-color="#555E61"/>
<stop offset="0.436728" stop-color="#798688"/>
<stop offset="1" stop-color="#B6BEBF"/>
</linearGradient>
<linearGradient id="paint1_linear_1_176" x1="0" y1="0" x2="269" y2="78" gradientUnits="userSpaceOnUse">
<stop stop-color="#555E61"/>
<stop offset="0.436728" stop-color="#798688"/>
<stop offset="1" stop-color="#B6BEBF"/>
</linearGradient>
</defs>
</svg>
