<svg width="34" height="34" viewBox="0 0 34 34" fill="none" xmlns="http://www.w3.org/2000/svg">
<path d="M34.0003 17.1043C34.0003 7.65655 26.3886 -0.00195312 17.0003 -0.00195312C7.60784 0.000171875 -0.00390625 7.65655 -0.00390625 17.1064C-0.00390625 25.6425 6.21384 32.7188 14.3398 34.0023V22.0492H10.0261V17.1064H14.3441V13.3345C14.3441 9.04842 16.8835 6.68117 20.7658 6.68117C22.6273 6.68117 24.5717 7.0148 24.5717 7.0148V11.2223H22.4276C20.3175 11.2223 19.6587 12.5419 19.6587 13.8955V17.1043H24.372L23.6197 22.047H19.6566V34.0002C27.7826 32.7167 34.0003 25.6404 34.0003 17.1043Z" fill="url(#paint0_linear_1_597)"/>
<defs>
<linearGradient id="paint0_linear_1_597" x1="27.1778" y1="-130.74" x2="90.9572" y2="-115.963" gradientUnits="userSpaceOnUse">
<stop stop-color="#41474A"/>
<stop offset="0.3" stop-color="#788587"/>
<stop offset="0.8" stop-color="#E1E6E6"/>
<stop offset="1" stop-color="#9BA8A9"/>
</linearGradient>
</defs>
</svg>
