<svg width="134" height="102" viewBox="0 0 134 102" fill="none" xmlns="http://www.w3.org/2000/svg">
<path d="M47.2924 7.78379C47.3279 7.74824 47.3457 7.73047 47.3457 7.73047L54.7568 11.3561C44.7865 15.6214 37.8552 25.2719 37.8552 36.5751C37.8552 47.8784 44.8398 57.5288 54.8101 61.7942C41.7474 56.5691 31.1906 43.8263 26.2854 37.1083C24.4726 34.5491 24.4726 31.1368 26.2854 28.5775C30.1775 23.1925 37.7486 13.9153 47.2924 7.78379Z" fill="url(#paint0_linear_1_145)"/>
<path d="M66.9122 73.0988V70.6996C66.9122 70.1664 66.4857 69.7399 65.9525 69.7399C65.9525 69.7399 65.9347 69.7399 65.8992 69.7399C46.5628 69.7399 29.0925 58.6854 13.4883 36.5765C22.8366 23.3893 34.0865 13.7922 47.2381 7.78516C37.8543 13.8633 30.3899 22.9273 26.4444 28.3123C24.525 30.9782 24.525 34.6038 26.4444 37.3229C31.4029 44.0409 41.8531 56.6238 54.8092 61.7956C57.5817 62.9685 60.6208 63.715 63.7665 63.9816C63.8376 63.9816 63.8909 63.9816 63.9264 63.9816C64.2108 64.0171 64.4951 64.0349 64.7795 64.0349C65.206 64.0349 65.6148 64.0527 66.0058 64.0882C66.539 64.0349 66.9122 63.6617 66.9122 63.1818V59.9295L73.3636 63.0752L80.4548 66.5408L66.9122 73.0988Z" fill="url(#paint1_linear_1_145)"/>
<g style="mix-blend-mode:overlay">
<g style="mix-blend-mode:overlay">
<path d="M47.2371 7.78516C37.8533 13.8633 30.3889 22.9273 26.4434 28.3123C24.524 30.9782 24.524 34.6037 26.4434 37.3229C31.4019 44.0942 41.8521 56.6238 54.8082 61.7956C41.8521 56.6238 30.5488 44.0942 25.6436 37.3229C23.6709 34.6037 23.6709 30.9782 25.6436 28.3123C29.5891 22.9273 37.8533 13.8633 47.2371 7.78516Z" fill="white"/>
</g>
</g>
<path d="M84.7183 65.3678L77.3072 61.7423C87.2242 57.5302 94.2088 47.8264 94.2088 36.5765C94.2088 25.2732 87.2242 15.5695 77.2539 11.3574C90.3166 16.5292 100.873 29.3253 105.725 36.0433C107.591 38.6025 107.591 42.0149 105.779 44.5741C101.886 49.9058 94.3154 59.2363 84.7183 65.3678Z" fill="url(#paint2_linear_1_145)"/>
<path d="M65.152 0V2.4526C65.152 2.98577 65.5785 3.4123 66.1117 3.4123C85.4481 3.4123 102.936 14.4668 118.576 36.5757C109.228 49.7273 97.9776 59.3066 84.826 65.3137C94.2099 59.2888 101.621 50.1716 105.566 44.7865C107.539 42.1207 107.539 38.4951 105.566 35.8292C100.661 29.0579 90.1578 16.4751 77.255 11.3566C74.4825 10.1836 71.4434 9.38385 68.2444 9.17058C68.2088 9.17058 68.1555 9.17058 68.0844 9.17058C67.8001 9.13504 67.5157 9.11726 67.2313 9.11726C66.8403 9.08171 66.4316 9.06394 66.005 9.06394C65.5252 9.06394 65.152 9.49048 65.152 9.97034V13.2227L58.7006 10.077L51.6094 6.61134L65.152 0Z" fill="url(#paint3_linear_1_145)"/>
<g style="mix-blend-mode:overlay">
<g style="mix-blend-mode:overlay">
<path d="M84.8269 65.3125C94.2107 59.2877 101.622 50.2238 105.567 44.7854C107.54 42.1195 107.54 38.494 105.567 35.8281C100.662 29.0568 90.1586 16.4739 77.2559 11.3555C90.1586 16.4739 101.462 29.0568 106.42 35.8281C108.34 38.494 108.34 42.1195 106.42 44.7854C102.475 50.2238 94.2107 59.2877 84.8269 65.3125Z" fill="white"/>
</g>
</g>
<path d="M61.3655 34.2305V58.5432C60.3702 58.3654 59.4105 58.1166 58.4863 57.7967V36.3098L61.3655 34.2305Z" fill="url(#paint4_linear_1_145)"/>
<path d="M52.0354 42.6543V54.3841C51.0046 53.6021 50.0449 52.749 49.1562 51.8249V44.7337L52.0354 42.6543Z" fill="url(#paint5_linear_1_145)"/>
<path d="M52.0352 42.6523L54.9143 44.7317V56.1949C53.8835 55.6618 52.9238 55.0575 52.0352 54.3821V42.6523Z" fill="url(#paint6_linear_1_145)"/>
<path d="M61.3652 34.2305L64.1911 36.3098V58.9697C63.2313 58.8986 62.2894 58.7564 61.3652 58.5432V34.2305Z" fill="url(#paint7_linear_1_145)"/>
<path d="M70.6955 27.6172V58.5412C69.7358 58.7545 68.7761 58.8967 67.8164 58.9677V29.6966L70.6955 27.6172Z" fill="url(#paint8_linear_1_145)"/>
<path d="M80.0276 21.2734V54.3835C79.1034 55.0588 78.1437 55.6631 77.1484 56.1963V23.3528L80.0276 21.2734Z" fill="url(#paint9_linear_1_145)"/>
<path d="M82.8532 51.8243C82.0001 52.7484 81.0581 53.6015 80.0273 54.3835V21.2734L82.8532 23.3528V51.8243Z" fill="url(#paint10_linear_1_145)"/>
<path d="M70.6953 27.6172L73.5211 29.6966V57.7948C72.597 58.1147 71.655 58.3635 70.6953 58.5412V27.6172Z" fill="url(#paint11_linear_1_145)"/>
<path fill-rule="evenodd" clip-rule="evenodd" d="M40.2012 99.9161C41.3742 99.7383 42.4228 99.4007 43.347 98.903L42.7071 100.343L42.0673 101.782H34.0698C34.2475 101.142 34.3719 100.52 34.443 99.9161C34.5496 99.3118 34.6029 98.5476 34.6029 97.6234V91.5986C34.6029 90.71 34.5496 89.9635 34.443 89.3593C34.3719 88.755 34.2475 88.1152 34.0698 87.4398H42.3872L41.8008 88.6128L41.2143 89.7858C40.6455 89.5014 40.0768 89.3059 39.5081 89.1993C38.9394 89.0571 38.264 88.986 37.4821 88.986H36.8422V93.678H41.8541L41.1609 94.8509L40.4678 96.0239C39.9702 95.7396 39.4548 95.5441 38.9216 95.4374C38.3884 95.3308 37.7309 95.2775 36.9489 95.2775H36.8422V100.236C38.2285 100.2 39.3482 100.094 40.2012 99.9161ZM6.1848 99.9161C7.35778 99.7383 8.38858 99.4007 9.27721 98.903L8.69072 100.343L8.05091 101.782H0C0.213269 101.142 0.35545 100.52 0.42654 99.9161C0.49763 99.3118 0.533173 98.5476 0.533173 97.6234V91.5986C0.533173 90.71 0.49763 89.9635 0.42654 89.3593C0.35545 88.755 0.213269 88.1152 0 87.4398H8.31749L7.73101 88.6128L7.14451 89.7858C6.5758 89.5014 6.02486 89.3059 5.49168 89.1993C4.92296 89.0571 4.24761 88.986 3.46562 88.986H2.82582V93.678H7.78432L7.0912 94.8509L6.39808 96.0239C5.93599 95.7396 5.43836 95.5441 4.90519 95.4374C4.37202 95.3308 3.71444 95.2775 2.93245 95.2775H2.82582V100.236C4.17652 100.2 5.29618 100.094 6.1848 99.9161ZM28.2049 87.4398C27.9205 87.7597 27.6184 88.2396 27.2985 88.8794C26.943 89.4837 26.4987 90.3901 25.9655 91.5986L21.7535 101.782H19.8874L16.0485 91.5986C15.6931 90.71 15.3376 89.9635 14.9822 89.3593C14.6267 88.755 14.1646 88.1152 13.5959 87.4398H17.8613C17.7547 87.7953 17.7191 88.2929 17.7547 88.9327C17.8257 89.537 17.9857 90.159 18.2345 90.7988L20.9537 98.1566L23.8861 90.7988C24.135 90.1946 24.3127 89.5725 24.4193 88.9327C24.4904 88.2929 24.4726 87.7953 24.366 87.4398H28.2049ZM57.5827 99.0097C58.1869 99.7206 59.04 100.645 60.1419 101.782H57.4227C56.6763 101.178 55.7699 100.289 54.7035 99.1163C53.6727 97.9433 52.8019 96.8237 52.091 95.7573L51.6645 95.1708V97.6234C51.6645 98.5476 51.7178 99.3118 51.8244 99.9161C51.8955 100.52 52.0199 101.142 52.1976 101.782H48.892C49.0697 101.142 49.1941 100.52 49.2652 99.9161C49.3363 99.3118 49.3718 98.5476 49.3718 97.6234V91.5986C49.3718 90.71 49.3363 89.9635 49.2652 89.3593C49.1941 88.755 49.0519 88.1152 48.8386 87.4398H51.6645C53.5839 87.4398 55.0768 87.8131 56.1431 88.5595C57.1739 89.3059 57.6893 90.3545 57.6893 91.7052C57.6893 92.9137 57.1028 93.8912 55.9298 94.6377C55.5744 94.8865 55.1834 95.0998 54.7569 95.2775L55.8232 96.8237C56.3564 97.5346 56.9429 98.2632 57.5827 99.0097ZM55.1834 91.6519C55.1834 90.7988 54.8457 90.1235 54.1704 89.6258C53.5306 89.1282 52.6953 88.8616 51.6645 88.8261V94.6377C52.6597 94.6021 53.4772 94.3355 54.117 93.8379C54.8279 93.2692 55.1834 92.5405 55.1834 91.6519ZM70.6454 99.9161C71.8184 99.7383 72.867 99.4007 73.7911 98.903L73.1513 100.343L72.5115 101.782H64.9938C65.1715 101.142 65.3137 100.52 65.4203 99.9161C65.4914 99.3118 65.527 98.5476 65.527 97.6234V91.5986C65.527 90.71 65.4914 89.9635 65.4203 89.3593C65.3137 88.755 65.1715 88.1152 64.9938 87.4398H68.2994C68.1217 88.0796 67.9973 88.7017 67.9262 89.3059C67.8551 89.9102 67.8196 90.6744 67.8196 91.5986V100.183C68.957 100.147 69.899 100.058 70.6454 99.9161ZM133.666 101.782H129.721C129.721 101.533 129.597 101.178 129.348 100.716C129.134 100.289 128.85 99.8628 128.495 99.4362L124.229 94.3178V97.6234C124.229 98.5476 124.265 99.3118 124.336 99.9161C124.407 100.52 124.549 101.142 124.762 101.782H121.403C121.581 101.142 121.723 100.52 121.83 99.9161C121.901 99.3118 121.937 98.5476 121.937 97.6234V91.5986C121.937 90.71 121.901 89.9635 121.83 89.3593C121.723 88.755 121.581 88.1152 121.403 87.4398H124.709C124.531 88.0796 124.407 88.7194 124.336 89.3593C124.265 89.9635 124.229 90.71 124.229 91.5986V93.7846L126.415 91.172C127.268 90.2123 127.89 89.4481 128.281 88.8794C128.672 88.3462 128.939 87.8664 129.081 87.4398H132.867C132.44 87.6886 131.978 88.0619 131.48 88.5595C130.947 89.0216 130.254 89.768 129.401 90.7988L126.789 93.7846L129.934 97.6234C131.178 99.0808 132.067 100.112 132.6 100.716C133.169 101.356 133.524 101.711 133.666 101.782ZM113.193 89.3593C114.614 90.781 115.325 92.5761 115.325 94.7443C115.325 96.8059 114.561 98.5298 113.033 99.9161C111.54 101.302 109.656 101.995 107.381 101.995C105.248 101.995 103.489 101.285 102.103 99.8628C100.681 98.441 99.9699 96.6637 99.9699 94.531C99.9699 92.4339 100.716 90.6922 102.209 89.3059C103.738 87.9197 105.622 87.2266 107.861 87.2266C109.994 87.2266 111.771 87.9375 113.193 89.3593ZM112.819 95.1175C112.819 93.3403 112.304 91.8652 111.273 90.6922C110.242 89.5548 108.945 88.986 107.381 88.986C105.959 88.986 104.786 89.4837 103.862 90.4789C102.938 91.4386 102.476 92.6649 102.476 94.1578C102.476 95.8995 102.991 97.3569 104.022 98.5298C105.053 99.7028 106.332 100.289 107.861 100.289C109.283 100.289 110.473 99.7917 111.433 98.7964C112.357 97.8012 112.819 96.5749 112.819 95.1175ZM92.1856 89.3593C93.6074 90.781 94.3183 92.5761 94.3183 94.7443C94.3183 96.8059 93.5541 98.5298 92.0256 99.9161C90.5328 101.302 88.6489 101.995 86.374 101.995C84.2413 101.995 82.4641 101.285 81.0423 99.8628C79.656 98.441 78.9629 96.6637 78.9629 94.531C78.9629 92.4339 79.7094 90.6922 81.2022 89.3059C82.6951 87.9197 84.579 87.2266 86.8539 87.2266C88.9866 87.2266 90.7638 87.9375 92.1856 89.3593ZM91.8124 95.1175C91.8124 93.3403 91.297 91.8652 90.2662 90.6922C89.2354 89.5548 87.938 88.986 86.374 88.986C84.9522 88.986 83.7792 89.4837 82.8551 90.4789C81.8954 91.4386 81.4155 92.6649 81.4155 94.1578C81.4155 95.8995 81.9309 97.3569 82.9617 98.5298C83.9925 99.7028 85.2899 100.289 86.8539 100.289C88.2757 100.289 89.4486 99.7917 90.3728 98.7964C91.3325 97.8012 91.8124 96.5749 91.8124 95.1175Z" fill="url(#paint12_linear_1_145)"/>
<g style="mix-blend-mode:overlay">
<path fill-rule="evenodd" clip-rule="evenodd" d="M34.9228 89.6792C34.9939 90.2834 35.0295 91.0299 35.0295 91.9185V97.9433C35.0295 98.8675 34.9939 99.6317 34.9228 100.236C34.8517 100.734 34.7451 101.249 34.6029 101.782H34.0698C34.2475 101.142 34.3719 100.52 34.443 99.9161C34.5496 99.3118 34.6029 98.5476 34.6029 97.6234V91.5986C34.6029 90.71 34.5496 89.9635 34.443 89.3593C34.3719 88.755 34.2475 88.1152 34.0698 87.4398H42.3872L42.2273 87.7597H34.4963C34.7096 88.4351 34.8517 89.0749 34.9228 89.6792ZM28.2049 87.4398C28.1338 87.5465 28.0449 87.6531 27.9383 87.7597H24.8459C24.9525 88.1152 24.9703 88.6128 24.8992 89.2526C24.7925 89.8924 24.6148 90.4967 24.366 91.0654L21.4335 98.4765L21.1136 97.6768L23.8861 90.7988C24.135 90.1946 24.3127 89.5725 24.4193 88.9327C24.4904 88.2929 24.4726 87.7953 24.366 87.4398H28.2049ZM40.2545 99.9161C41.4275 99.7383 42.4583 99.4007 43.347 98.903L43.0271 99.5962C42.3162 99.8805 41.5519 100.094 40.7344 100.236C39.8458 100.378 38.7261 100.467 37.3754 100.503V100.183C38.5129 100.147 39.4726 100.058 40.2545 99.9161ZM6.1848 99.9161C7.35778 99.7383 8.40636 99.4007 9.33053 98.903L9.01062 99.5962C8.29972 99.8805 7.51774 100.094 6.66466 100.236C5.77604 100.378 4.65637 100.467 3.30567 100.503V100.183C4.44311 100.147 5.40281 100.058 6.1848 99.9161ZM70.6454 99.9161C71.8184 99.7383 72.867 99.4007 73.7911 98.903L73.4712 99.5962C72.7603 99.8805 71.9783 100.094 71.1253 100.236C70.3433 100.378 69.3836 100.467 68.2461 100.503V100.183C69.2058 100.112 70.0056 100.023 70.6454 99.9161ZM132.867 87.4398C132.725 87.5465 132.565 87.6531 132.387 87.7597H129.561C129.419 88.1863 129.152 88.6661 128.761 89.1993C128.37 89.768 127.748 90.5322 126.895 91.4919L124.709 94.1045V93.2514L126.415 91.172C127.268 90.2123 127.89 89.4481 128.281 88.8794C128.672 88.3462 128.939 87.8664 129.081 87.4398H132.867ZM111.753 91.0121C112.784 92.1851 113.299 93.6424 113.299 95.3841C113.299 96.877 112.819 98.1211 111.86 99.1163C110.936 100.076 109.763 100.556 108.341 100.556C107.168 100.556 106.137 100.236 105.248 99.5962C106.03 100.058 106.901 100.289 107.861 100.289C109.283 100.289 110.456 99.7917 111.38 98.7964C112.34 97.8012 112.819 96.5749 112.819 95.1175C112.819 93.3403 112.304 91.8652 111.273 90.6922C111.024 90.4078 110.758 90.159 110.473 89.9457C110.936 90.2301 111.362 90.5856 111.753 91.0121ZM56.1964 88.6661C55.2012 88.0619 53.8505 87.7597 52.1443 87.7597H49.3185C49.5318 88.4351 49.6739 89.0749 49.745 89.6792C49.8161 90.2834 49.8517 91.0299 49.8517 91.9185V97.9433C49.8517 98.8675 49.8161 99.6317 49.745 100.236C49.6739 100.734 49.5673 101.249 49.4251 101.782H48.8386C49.0519 101.142 49.1941 100.52 49.2652 99.9161C49.3363 99.3118 49.3718 98.5476 49.3718 97.6234V91.5986C49.3718 90.71 49.3363 89.9635 49.2652 89.3593C49.1941 88.755 49.0519 88.1152 48.8386 87.4398H51.6645C53.5839 87.4398 55.059 87.8131 56.0898 88.5595C56.1253 88.595 56.1609 88.6306 56.1964 88.6661ZM90.6927 91.0121C91.7235 92.1851 92.2389 93.6424 92.2389 95.3841C92.2389 96.877 91.7768 98.1211 90.8527 99.1163C89.9285 100.076 88.7555 100.556 87.3337 100.556C86.1607 100.556 85.1299 100.236 84.2413 99.5962C85.0233 100.058 85.8942 100.289 86.8539 100.289C88.2757 100.289 89.4486 99.7917 90.3728 98.7964C91.3325 97.8012 91.8124 96.5749 91.8124 95.1175C91.8124 93.3403 91.297 91.8652 90.2662 90.6922C89.9818 90.4078 89.6975 90.159 89.4131 89.9457C89.8752 90.2301 90.3017 90.5856 90.6927 91.0121ZM0.906392 89.6792C0.977482 90.2834 1.01303 91.0299 1.01303 91.9185V97.9433C1.01303 98.8675 0.977482 99.6317 0.906392 100.236C0.835303 100.734 0.728665 101.249 0.586485 101.782H0C0.213269 101.142 0.35545 100.52 0.42654 99.9161C0.49763 99.3118 0.533173 98.5476 0.533173 97.6234V91.5986C0.533173 90.71 0.49763 89.9635 0.42654 89.3593C0.35545 88.755 0.213269 88.1152 0 87.4398H8.31749L8.15755 87.7597H0.479852C0.693122 88.4351 0.835303 89.0749 0.906392 89.6792ZM81.5221 100.183C81.8065 100.467 82.1086 100.734 82.4285 100.982C81.9309 100.663 81.4688 100.289 81.0423 99.8628C79.6205 98.441 78.9096 96.6637 78.9096 94.531C78.9096 92.4339 79.6738 90.6922 81.2022 89.3059C82.6951 87.9197 84.579 87.2266 86.8539 87.2266C88.56 87.2266 90.0174 87.6886 91.2259 88.6128C90.0884 87.9019 88.7911 87.5465 87.3337 87.5465C85.0589 87.5465 83.175 88.2396 81.6821 89.6258C80.1537 91.0121 79.3895 92.736 79.3895 94.7976C79.3895 96.9659 80.1003 98.7609 81.5221 100.183ZM68.2994 87.4398C68.2639 87.5465 68.2461 87.6531 68.2461 87.7597H65.4203C65.6336 88.4351 65.7758 89.0749 65.8468 89.6792C65.9179 90.2834 65.9535 91.0299 65.9535 91.9185V97.9433C65.9535 98.8675 65.9179 99.6317 65.8468 100.236C65.7758 100.734 65.6691 101.249 65.527 101.782H64.9938C65.1715 101.142 65.2959 100.52 65.367 99.9161C65.4736 99.3118 65.527 98.5476 65.527 97.6234V91.5986C65.527 90.71 65.4736 89.9635 65.367 89.3593C65.2959 88.755 65.1715 88.1152 64.9938 87.4398H68.2994ZM102.529 100.183C102.814 100.467 103.116 100.734 103.436 100.982C102.938 100.663 102.476 100.289 102.049 99.8628C100.628 98.441 99.9166 96.6637 99.9166 94.531C99.9166 92.4339 100.663 90.6922 102.156 89.3059C103.684 87.9197 105.568 87.2266 107.808 87.2266C109.514 87.2266 110.989 87.6886 112.233 88.6128C111.095 87.9019 109.78 87.5465 108.287 87.5465C106.048 87.5465 104.164 88.2396 102.636 89.6258C101.143 91.0121 100.396 92.736 100.396 94.7976C100.396 96.9659 101.107 98.7609 102.529 100.183ZM129.774 101.036C129.916 101.32 130.023 101.569 130.094 101.782H129.668C129.668 101.533 129.561 101.196 129.348 100.769C129.099 100.307 128.797 99.8628 128.441 99.4362L124.656 94.9042V94.6377L128.921 99.7561C129.277 100.183 129.561 100.609 129.774 101.036ZM3.25235 93.678H7.78432L7.57105 93.9979H3.25235V93.678ZM124.709 87.4398C124.674 87.5465 124.638 87.6531 124.603 87.7597H121.83C122.008 88.4351 122.15 89.0749 122.257 89.6792C122.328 90.2834 122.363 91.0299 122.363 91.9185V97.9433C122.363 98.8675 122.328 99.6317 122.257 100.236C122.185 100.734 122.079 101.249 121.937 101.782H121.35C121.563 101.142 121.706 100.52 121.777 99.9161C121.848 99.3118 121.883 98.5476 121.883 97.6234V91.5986C121.883 90.71 121.848 89.9635 121.777 89.3593C121.706 88.755 121.563 88.1152 121.35 87.4398H124.709ZM37.3221 93.678H41.8541L41.6408 93.9979H37.3221V93.678ZM16.5284 91.9185L20.2606 101.782H19.8874L16.0485 91.5986C15.6931 90.71 15.3376 89.9457 14.9822 89.3059C14.5912 88.7017 14.1291 88.0796 13.5959 87.4398H17.8613C17.8257 87.5465 17.7902 87.6531 17.7547 87.7597H14.0758C14.6089 88.3995 15.0533 89.0216 15.4087 89.6258C15.7997 90.2301 16.1729 90.9943 16.5284 91.9185ZM57.5294 101.782H57.4227C56.6407 101.142 55.7343 100.254 54.7035 99.1163C53.7083 97.9789 52.8552 96.8948 52.1443 95.864V95.4907L52.5175 96.0772C53.264 97.1436 54.1526 98.2455 55.1834 99.3829C56.0365 100.378 56.8185 101.178 57.5294 101.782ZM55.1834 91.5986C55.1834 90.8166 54.8813 90.1768 54.277 89.6792C54.3836 89.7503 54.4903 89.8213 54.5969 89.8924C55.2723 90.4256 55.6099 91.1009 55.6099 91.9185C55.6099 92.8426 55.2545 93.5891 54.5436 94.1578C53.9393 94.6554 53.1396 94.922 52.1443 94.9576V94.5843C52.9263 94.4777 53.5661 94.2289 54.0637 93.8379C54.8102 93.2692 55.1834 92.5228 55.1834 91.5986Z" fill="white"/>
</g>
<defs>
<linearGradient id="paint0_linear_1_145" x1="61.9013" y1="10.8229" x2="56.5163" y2="55.716" gradientUnits="userSpaceOnUse">
<stop stop-color="#41474A"/>
<stop offset="0.3" stop-color="#788587"/>
<stop offset="0.8" stop-color="#E1E6E6"/>
<stop offset="1" stop-color="#9BA8A9"/>
</linearGradient>
<linearGradient id="paint1_linear_1_145" x1="81.5211" y1="8.42496" x2="81.5211" y2="75.2315" gradientUnits="userSpaceOnUse">
<stop stop-color="#E6E6E6"/>
<stop offset="0.1" stop-color="#1A1A1A"/>
<stop offset="0.2" stop-color="#C2C2C2"/>
<stop offset="0.3" stop-color="#E6E6E6"/>
<stop offset="0.4" stop-color="#C2C2C2"/>
<stop offset="0.6" stop-color="#1A1A1A"/>
<stop offset="0.8" stop-color="#E6E6E6"/>
<stop offset="0.9" stop-color="#C2C2C2"/>
<stop offset="1" stop-color="#1A1A1A"/>
</linearGradient>
<linearGradient id="paint2_linear_1_145" x1="70.1627" y1="62.3287" x2="75.5478" y2="17.3823" gradientUnits="userSpaceOnUse">
<stop stop-color="#41474A"/>
<stop offset="0.3" stop-color="#788587"/>
<stop offset="0.8" stop-color="#E1E6E6"/>
<stop offset="1" stop-color="#9BA8A9"/>
</linearGradient>
<linearGradient id="paint3_linear_1_145" x1="50.543" y1="64.7272" x2="50.543" y2="-2.07937" gradientUnits="userSpaceOnUse">
<stop stop-color="#E6E6E6"/>
<stop offset="0.1" stop-color="#1A1A1A"/>
<stop offset="0.2" stop-color="#C2C2C2"/>
<stop offset="0.3" stop-color="#E6E6E6"/>
<stop offset="0.4" stop-color="#C2C2C2"/>
<stop offset="0.6" stop-color="#1A1A1A"/>
<stop offset="0.8" stop-color="#E6E6E6"/>
<stop offset="0.9" stop-color="#C2C2C2"/>
<stop offset="1" stop-color="#1A1A1A"/>
</linearGradient>
<linearGradient id="paint4_linear_1_145" x1="62.4318" y1="11.9438" x2="62.4318" y2="88.7207" gradientUnits="userSpaceOnUse">
<stop stop-color="#E6E6E6"/>
<stop offset="0.1" stop-color="#1A1A1A"/>
<stop offset="0.2" stop-color="#C2C2C2"/>
<stop offset="0.3" stop-color="#E6E6E6"/>
<stop offset="0.4" stop-color="#C2C2C2"/>
<stop offset="0.6" stop-color="#1A1A1A"/>
<stop offset="0.8" stop-color="#E6E6E6"/>
<stop offset="0.9" stop-color="#C2C2C2"/>
<stop offset="1" stop-color="#1A1A1A"/>
</linearGradient>
<linearGradient id="paint5_linear_1_145" x1="53.1017" y1="7.57152" x2="53.1017" y2="93.0391" gradientUnits="userSpaceOnUse">
<stop stop-color="#E6E6E6"/>
<stop offset="0.1" stop-color="#1A1A1A"/>
<stop offset="0.2" stop-color="#C2C2C2"/>
<stop offset="0.3" stop-color="#E6E6E6"/>
<stop offset="0.4" stop-color="#C2C2C2"/>
<stop offset="0.6" stop-color="#1A1A1A"/>
<stop offset="0.8" stop-color="#E6E6E6"/>
<stop offset="0.9" stop-color="#C2C2C2"/>
<stop offset="1" stop-color="#1A1A1A"/>
</linearGradient>
<linearGradient id="paint6_linear_1_145" x1="55.9806" y1="8.5826" x2="55.9806" y2="91.5976" gradientUnits="userSpaceOnUse">
<stop stop-color="#41474A"/>
<stop offset="0.3" stop-color="#788587"/>
<stop offset="0.8" stop-color="#E1E6E6"/>
<stop offset="1" stop-color="#9BA8A9"/>
</linearGradient>
<linearGradient id="paint7_linear_1_145" x1="65.2574" y1="11.9438" x2="65.2574" y2="88.6674" gradientUnits="userSpaceOnUse">
<stop stop-color="#41474A"/>
<stop offset="0.3" stop-color="#788587"/>
<stop offset="0.8" stop-color="#E1E6E6"/>
<stop offset="1" stop-color="#9BA8A9"/>
</linearGradient>
<linearGradient id="paint8_linear_1_145" x1="71.7619" y1="12.8483" x2="71.7619" y2="88.079" gradientUnits="userSpaceOnUse">
<stop stop-color="#E6E6E6"/>
<stop offset="0.1" stop-color="#1A1A1A"/>
<stop offset="0.2" stop-color="#C2C2C2"/>
<stop offset="0.3" stop-color="#E6E6E6"/>
<stop offset="0.4" stop-color="#C2C2C2"/>
<stop offset="0.6" stop-color="#1A1A1A"/>
<stop offset="0.8" stop-color="#E6E6E6"/>
<stop offset="0.9" stop-color="#C2C2C2"/>
<stop offset="1" stop-color="#1A1A1A"/>
</linearGradient>
<linearGradient id="paint9_linear_1_145" x1="81.0939" y1="13.3825" x2="81.0939" y2="88.08" gradientUnits="userSpaceOnUse">
<stop stop-color="#E6E6E6"/>
<stop offset="0.1" stop-color="#1A1A1A"/>
<stop offset="0.2" stop-color="#C2C2C2"/>
<stop offset="0.3" stop-color="#E6E6E6"/>
<stop offset="0.4" stop-color="#C2C2C2"/>
<stop offset="0.6" stop-color="#1A1A1A"/>
<stop offset="0.8" stop-color="#E6E6E6"/>
<stop offset="0.9" stop-color="#C2C2C2"/>
<stop offset="1" stop-color="#1A1A1A"/>
</linearGradient>
<linearGradient id="paint10_linear_1_145" x1="83.9195" y1="13.3292" x2="83.9195" y2="88.2933" gradientUnits="userSpaceOnUse">
<stop stop-color="#41474A"/>
<stop offset="0.3" stop-color="#788587"/>
<stop offset="0.8" stop-color="#E1E6E6"/>
<stop offset="1" stop-color="#9BA8A9"/>
</linearGradient>
<linearGradient id="paint11_linear_1_145" x1="74.5875" y1="12.8483" x2="74.5875" y2="88.1323" gradientUnits="userSpaceOnUse">
<stop stop-color="#41474A"/>
<stop offset="0.3" stop-color="#788587"/>
<stop offset="0.8" stop-color="#E1E6E6"/>
<stop offset="1" stop-color="#9BA8A9"/>
</linearGradient>
<linearGradient id="paint12_linear_1_145" x1="106.848" y1="30.4436" x2="155.793" y2="133.079" gradientUnits="userSpaceOnUse">
<stop stop-color="#41474A"/>
<stop offset="0.3" stop-color="#788587"/>
<stop offset="0.8" stop-color="#E1E6E6"/>
<stop offset="1" stop-color="#9BA8A9"/>
</linearGradient>
</defs>
</svg>
